<!DOCTYPE svg PUBLIC "-//W3C//DTD SVG 1.1//EN" "http://www.w3.org/Graphics/SVG/1.1/DTD/svg11.dtd">
<svg xmlns="http://www.w3.org/2000/svg" xmlns:xlink="http://www.w3.org/1999/xlink" width="874px" height="204px" version="1.1"><defs/><g transform="translate(0.5,0.5)"><path d="M 2 32 L 142 102 L 2 172 Z" fill="#ffffff" stroke="#000000" stroke-width="2" stroke-miterlimit="10" transform="rotate(-90,72,102)" pointer-events="none"/><path d="M 162 102 L 211.76 102" fill="none" stroke="#000000" stroke-width="2" stroke-miterlimit="10" pointer-events="none"/><path d="M 219.76 102 L 211.76 106 L 211.76 98 Z" fill="#000000" stroke="#000000" stroke-width="2" stroke-miterlimit="10" pointer-events="none"/><path d="M 362 2 L 402 22 L 362 42 Z" fill="#ffffff" stroke="#000000" stroke-width="2" stroke-miterlimit="10" transform="rotate(-90,382,22)" pointer-events="none"/><path d="M 282 82 L 302 102 L 282 122 L 262 102 Z" fill="#ffffff" stroke="#000000" stroke-width="2" stroke-miterlimit="10" pointer-events="none"/><path d="M 382 82 L 402 102 L 382 122 L 362 102 Z" fill="#ffffff" stroke="#000000" stroke-width="2" stroke-miterlimit="10" pointer-events="none"/><path d="M 482 82 L 502 102 L 482 122 L 462 102 Z" fill="#ffffff" stroke="#000000" stroke-width="2" stroke-miterlimit="10" pointer-events="none"/><path d="M 252 162 L 256.35 177.65 L 272 182 L 256.35 186.35 L 252 202 L 247.65 186.35 L 232 182 L 247.65 177.65 Z" fill="#ffffff" stroke="#000000" stroke-width="2" stroke-miterlimit="10" pointer-events="none"/><path d="M 312 162 L 316.35 177.65 L 332 182 L 316.35 186.35 L 312 202 L 307.65 186.35 L 292 182 L 307.65 177.65 Z" fill="#ffffff" stroke="#000000" stroke-width="2" stroke-miterlimit="10" pointer-events="none"/><ellipse cx="452" cy="182" rx="20" ry="20" fill="#ffffff" stroke="#000000" stroke-width="2" pointer-events="none"/><ellipse cx="512" cy="182" rx="20" ry="20" fill="#ffffff" stroke="#000000" stroke-width="2" pointer-events="none"/><path d="M 382 42 L 382 62 L 282 62 L 282 71.76" fill="none" stroke="#000000" stroke-width="2" stroke-miterlimit="10" pointer-events="none"/><path d="M 282 79.76 L 279.33 71.76 L 284.67 71.76 Z" fill="#000000" stroke="#000000" stroke-width="2" stroke-miterlimit="10" pointer-events="none"/><path d="M 382 42 L 382 71.76" fill="none" stroke="#000000" stroke-width="2" stroke-miterlimit="10" pointer-events="none"/><path d="M 382 79.76 L 379.33 71.76 L 384.67 71.76 Z" fill="#000000" stroke="#000000" stroke-width="2" stroke-miterlimit="10" pointer-events="none"/><path d="M 382 42 L 382 62 L 482 62 L 482 71.76" fill="none" stroke="#000000" stroke-width="2" stroke-miterlimit="10" pointer-events="none"/><path d="M 482 79.76 L 479.33 71.76 L 484.67 71.76 Z" fill="#000000" stroke="#000000" stroke-width="2" stroke-miterlimit="10" pointer-events="none"/><path d="M 282 122 L 282 142 L 252 142 L 252 151.76" fill="none" stroke="#000000" stroke-width="2" stroke-miterlimit="10" pointer-events="none"/><path d="M 252 159.76 L 249.33 151.76 L 254.67 151.76 Z" fill="#000000" stroke="#000000" stroke-width="2" stroke-miterlimit="10" pointer-events="none"/><path d="M 282 122 L 282 142 L 312 142 L 312 151.76" fill="none" stroke="#000000" stroke-width="2" stroke-miterlimit="10" pointer-events="none"/><path d="M 312 159.76 L 309.33 151.76 L 314.67 151.76 Z" fill="#000000" stroke="#000000" stroke-width="2" stroke-miterlimit="10" pointer-events="none"/><path d="M 382 122 L 382 151.76" fill="none" stroke="#000000" stroke-width="2" stroke-miterlimit="10" pointer-events="none"/><path d="M 382 159.76 L 379.33 151.76 L 384.67 151.76 Z" fill="#000000" stroke="#000000" stroke-width="2" stroke-miterlimit="10" pointer-events="none"/><path d="M 482 122 L 482 142 L 452 142 L 452 151.76" fill="none" stroke="#000000" stroke-width="2" stroke-miterlimit="10" pointer-events="none"/><path d="M 452 159.76 L 449.33 151.76 L 454.67 151.76 Z" fill="#000000" stroke="#000000" stroke-width="2" stroke-miterlimit="10" pointer-events="none"/><path d="M 482 122 L 482 142 L 512 142 L 512 151.76" fill="none" stroke="#000000" stroke-width="2" stroke-miterlimit="10" pointer-events="none"/><path d="M 512 159.76 L 509.33 151.76 L 514.67 151.76 Z" fill="#000000" stroke="#000000" stroke-width="2" stroke-miterlimit="10" pointer-events="none"/><path d="M 542 102 L 591.76 102" fill="none" stroke="#000000" stroke-width="2" stroke-miterlimit="10" pointer-events="none"/><path d="M 599.76 102 L 591.76 106 L 591.76 98 Z" fill="#000000" stroke="#000000" stroke-width="2" stroke-miterlimit="10" pointer-events="none"/><rect x="622" y="12" width="250" height="180" fill="#ffffff" stroke="#000000" stroke-width="2" pointer-events="none"/><rect x="632" y="22" width="80" height="160" fill="#ffffff" stroke="#000000" stroke-width="2" pointer-events="none"/><rect x="722" y="22" width="140" height="70" fill="#ffffff" stroke="#000000" stroke-width="2" pointer-events="none"/><rect x="722" y="102" width="140" height="80" fill="#ffffff" stroke="#000000" stroke-width="2" pointer-events="none"/><path d="M 672 37 L 676.35 52.65 L 692 57 L 676.35 61.35 L 672 77 L 667.65 61.35 L 652 57 L 667.65 52.65 Z" fill="#ffffff" stroke="#000000" stroke-width="2" stroke-miterlimit="10" pointer-events="none"/><path d="M 672 122 L 676.35 137.65 L 692 142 L 676.35 146.35 L 672 162 L 667.65 146.35 L 652 142 L 667.65 137.65 Z" fill="#ffffff" stroke="#000000" stroke-width="2" stroke-miterlimit="10" pointer-events="none"/><ellipse cx="762" cy="142" rx="20" ry="20" fill="#ffffff" stroke="#000000" stroke-width="2" pointer-events="none"/><ellipse cx="822" cy="142" rx="20" ry="20" fill="#ffffff" stroke="#000000" stroke-width="2" pointer-events="none"/><path d="M 382 202 C 383.48 200.33 391.95 190.78 397.25 184.81 C 402 179.47 401.9 171.67 397.58 166.84 C 393.27 162 386.29 162.02 382 166.88 C 377.71 162.02 370.73 162 366.42 166.83 C 362.1 171.67 362 179.46 366.74 184.81 C 372.04 190.78 380.52 200.33 382 202 Z" fill="#ffffff" stroke="#000000" stroke-width="2" stroke-miterlimit="10" pointer-events="none"/><path d="M 792 77 C 793.48 75.33 801.95 65.78 807.25 59.81 C 812 54.47 811.9 46.67 807.58 41.84 C 803.27 37 796.29 37.02 792 41.88 C 787.71 37.02 780.73 37 776.42 41.83 C 772.1 46.67 772 54.46 776.74 59.81 C 782.04 65.78 790.52 75.33 792 77 Z" fill="#ffffff" stroke="#000000" stroke-width="2" stroke-miterlimit="10" pointer-events="none"/></g></svg>