<!DOCTYPE svg PUBLIC "-//W3C//DTD SVG 1.1//EN" "http://www.w3.org/Graphics/SVG/1.1/DTD/svg11.dtd">
<svg xmlns="http://www.w3.org/2000/svg" xmlns:xlink="http://www.w3.org/1999/xlink" width="544px" height="124px" version="1.1"><defs/><g transform="translate(0.5,0.5)"><path d="M 82 42 L 82 71.76" fill="none" stroke="#000000" stroke-width="2" stroke-miterlimit="10" pointer-events="none"/><path d="M 82 79.76 L 79.33 71.76 L 84.67 71.76 Z" fill="#000000" stroke="#000000" stroke-width="2" stroke-miterlimit="10" pointer-events="none"/><ellipse cx="82" cy="22" rx="20" ry="20" fill="#ffffff" stroke="#000000" stroke-width="2" pointer-events="none"/><path d="M 22 42 L 22 71.76" fill="none" stroke="#000000" stroke-width="2" stroke-miterlimit="10" pointer-events="none"/><path d="M 22 79.76 L 19.33 71.76 L 24.67 71.76 Z" fill="#000000" stroke="#000000" stroke-width="2" stroke-miterlimit="10" pointer-events="none"/><ellipse cx="22" cy="22" rx="20" ry="20" fill="#ffffff" stroke="#000000" stroke-width="2" pointer-events="none"/><path d="M 142 42 L 142 71.76" fill="none" stroke="#000000" stroke-width="2" stroke-miterlimit="10" pointer-events="none"/><path d="M 142 79.76 L 139.33 71.76 L 144.67 71.76 Z" fill="#000000" stroke="#000000" stroke-width="2" stroke-miterlimit="10" pointer-events="none"/><ellipse cx="142" cy="22" rx="20" ry="20" fill="#ffffff" stroke="#000000" stroke-width="2" pointer-events="none"/><path d="M 202 42 L 202 71.76" fill="none" stroke="#000000" stroke-width="2" stroke-miterlimit="10" pointer-events="none"/><path d="M 202 79.76 L 199.33 71.76 L 204.67 71.76 Z" fill="#000000" stroke="#000000" stroke-width="2" stroke-miterlimit="10" pointer-events="none"/><ellipse cx="202" cy="22" rx="20" ry="20" fill="#ffffff" stroke="#000000" stroke-width="2" pointer-events="none"/><ellipse cx="82" cy="102" rx="20" ry="20" fill="#ffffff" stroke="#000000" stroke-width="2" pointer-events="none"/><ellipse cx="22" cy="102" rx="20" ry="20" fill="#ffffff" stroke="#000000" stroke-width="2" pointer-events="none"/><ellipse cx="142" cy="102" rx="20" ry="20" fill="#ffffff" stroke="#000000" stroke-width="2" pointer-events="none"/><ellipse cx="202" cy="102" rx="20" ry="20" fill="#ffffff" stroke="#000000" stroke-width="2" pointer-events="none"/><rect x="322" y="82" width="40" height="40" fill="#ffffff" stroke="#000000" stroke-width="2" pointer-events="none"/><ellipse cx="402" cy="22" rx="20" ry="20" fill="#ffffff" stroke="#000000" stroke-width="2" pointer-events="none"/><path d="M 462 42 L 462 71.76" fill="none" stroke="#000000" stroke-width="2" stroke-miterlimit="10" pointer-events="none"/><path d="M 462 79.76 L 459.33 71.76 L 464.67 71.76 Z" fill="#000000" stroke="#000000" stroke-width="2" stroke-miterlimit="10" pointer-events="none"/><path d="M 442 2 L 482 22 L 442 42 Z" fill="#ffffff" stroke="#000000" stroke-width="2" stroke-miterlimit="10" transform="rotate(-90,462,22)" pointer-events="none"/><path d="M 522 42 L 522 71.76" fill="none" stroke="#000000" stroke-width="2" stroke-miterlimit="10" pointer-events="none"/><path d="M 522 79.76 L 519.33 71.76 L 524.67 71.76 Z" fill="#000000" stroke="#000000" stroke-width="2" stroke-miterlimit="10" pointer-events="none"/><path d="M 522 2 L 542 22 L 522 42 L 502 22 Z" fill="#ffffff" stroke="#000000" stroke-width="2" stroke-miterlimit="10" pointer-events="none"/><path d="M 342 42 L 342 71.76" fill="none" stroke="#000000" stroke-width="2" stroke-miterlimit="10" pointer-events="none"/><path d="M 342 79.76 L 339.33 71.76 L 344.67 71.76 Z" fill="#000000" stroke="#000000" stroke-width="2" stroke-miterlimit="10" pointer-events="none"/><rect x="322" y="2" width="40" height="40" fill="#ffffff" stroke="#000000" stroke-width="2" pointer-events="none"/><path d="M 402 82 L 406.35 97.65 L 422 102 L 406.35 106.35 L 402 122 L 397.65 106.35 L 382 102 L 397.65 97.65 Z" fill="#ff99cc" stroke="#ff0080" stroke-width="2" stroke-miterlimit="10" pointer-events="none"/><path d="M 442 82 L 482 102 L 442 122 Z" fill="#ffffff" stroke="#000000" stroke-width="2" stroke-miterlimit="10" transform="rotate(-90,462,102)" pointer-events="none"/><path d="M 522 82 L 542 102 L 522 122 L 502 102 Z" fill="#ffffff" stroke="#000000" stroke-width="2" stroke-miterlimit="10" pointer-events="none"/></g></svg>